<?xml version="1.0" encoding="UTF-8" standalone="no"?>
<svg
   version="1.1"
   width="336.70898"
   height="440.2605"
   id="svg42"
   sodipodi:docname="favicon.svg"
   inkscape:version="1.4.2 (ebf0e940, 2025-05-08)"
   xmlns:inkscape="http://www.inkscape.org/namespaces/inkscape"
   xmlns:sodipodi="http://sodipodi.sourceforge.net/DTD/sodipodi-0.dtd"
   xmlns:xlink="http://www.w3.org/1999/xlink"
   xmlns="http://www.w3.org/2000/svg"
   xmlns:svg="http://www.w3.org/2000/svg">
  <defs
     id="defs42">
    <filter
       inkscape:label="Fill Background"
       inkscape:menu="Fill and Transparency"
       inkscape:menu-tooltip="Adds a colorizable opaque background"
       style="color-interpolation-filters:sRGB"
       id="filter43"
       x="0"
       y="0"
       width="1"
       height="1">
      <feFlood
         result="result1"
         flood-color="rgb(200,55,55)"
         flood-opacity="1"
         id="feFlood42" />
      <feImage
         xlink:href=""
         result="result2"
         id="feImage42" />
      <feBlend
         result="result4"
         in2="result1"
         mode="multiply"
         id="feBlend42" />
      <feMerge
         result="fbSourceGraphic"
         id="feMerge43">
        <feMergeNode
           in="result1"
           id="feMergeNode42" />
        <feMergeNode
           in="SourceGraphic"
           id="feMergeNode43" />
      </feMerge>
      <feColorMatrix
         result="fbSourceGraphicAlpha"
         in="fbSourceGraphic"
         values="0 0 0 -1 0 0 0 0 -1 0 0 0 0 -1 0 0 0 0 1 0"
         id="feColorMatrix43" />
      <feFlood
         id="feFlood43"
         result="result1"
         flood-color="rgb(200,55,55)"
         flood-opacity="1"
         in="fbSourceGraphic" />
      <feImage
         id="feImage43"
         xlink:href=""
         result="result2" />
      <feBlend
         id="feBlend43"
         result="result4"
         in2="result1"
         mode="multiply" />
      <feMerge
         id="feMerge44"
         result="result3">
        <feMergeNode
           id="feMergeNode44"
           in="result1" />
        <feMergeNode
           id="feMergeNode45"
           in="fbSourceGraphic" />
      </feMerge>
    </filter>
  </defs>
  <sodipodi:namedview
     id="namedview42"
     pagecolor="#ffffff"
     bordercolor="#000000"
     borderopacity="0.25"
     inkscape:showpageshadow="2"
     inkscape:pageopacity="0.0"
     inkscape:pagecheckerboard="true"
     inkscape:deskcolor="#d1d1d1"
     showborder="true"
     labelstyle="default"
     inkscape:zoom="0.58964947"
     inkscape:cx="167.0484"
     inkscape:cy="187.39947"
     inkscape:window-width="1024"
     inkscape:window-height="826"
     inkscape:window-x="255"
     inkscape:window-y="78"
     inkscape:window-maximized="0"
     inkscape:current-layer="svg42" />
  <path
     d="m 0,0 c 111.11396,0 222.22793,0 336.70899,0 0,145.28596 0,290.57194 0,440.2605 -111.11397,0 -222.22794,0 -336.70899,0 C 0,294.97454 0,149.68858 0,0 Z"
     fill="#fefefe"
     id="path1"
     style="display:inline;opacity:0;mix-blend-mode:normal;stroke-width:0.509715;filter:url(#filter43)" />
  <path
     d="m 190.53003,15.116089 c 6.78737,5.739804 10.47709,11.699558 11.34375,20.484375 0.38025,9.468225 -0.74607,16.446636 -7.21094,23.574219 -4.61817,4.321677 -9.59584,7.941406 -16.13281,7.941406 0.0382,9.849799 0.0977,19.699223 0.1839,29.548726 0.0394,4.574515 0.0716,9.148835 0.0871,13.723495 0.0152,4.42229 0.0498,8.84406 0.0973,13.26612 0.0147,1.67947 0.0227,3.35901 0.0236,5.03854 0.01,9.49912 0.57131,17.64154 4.60812,26.42312 0.33,0.99 0.66,1.98 1,3 15.70227,-5.36899 24.68652,-16.64916 35,-29 0.44295,-0.5298 0.88591,-1.05961 1.34228,-1.60547 1.90068,-2.28171 3.78011,-4.57796 5.63819,-6.89453 1.36716,-1.69242 2.767,-3.35886 4.19531,-5 0.66387,-0.78375 1.32773,-1.5675 2.01172,-2.375 0.59168,-0.67805 1.18336,-1.35609 1.79297,-2.05469 1.32022,-2.09926 1.32022,-2.09926 0.29687,-4.64062 -0.95497,-1.81651 -1.92488,-3.62517 -2.90233,-5.42969 -2.62045,-6.199933 -2.45557,-13.494149 -0.49609,-19.851564 3.64107,-7.955096 9.11618,-12.750949 17.12109,-16.148437 9.18307,-1.224409 17.43324,-0.611307 25,5 5.57902,4.89055 8.36315,10.464846 9.38672,17.753906 0.47897,8.163764 -1.57553,14.622145 -6.38672,21.246095 -2.79545,2.49128 -5.66632,4.31498 -9,6 -0.92813,0.56074 -0.92813,0.56074 -1.875,1.13281 -2.89904,1.18307 -5.37787,1.13175 -8.5,1.11719 -1.10086,0.005 -2.20172,0.0103 -3.33594,0.0156 -3.38738,-0.27354 -6.1235,-1.06058 -9.28906,-2.2656 -6.17282,6.61126 -12.14409,13.29251 -17.8125,20.34766 -2.19062,2.65612 -4.47688,5.1859 -6.8125,7.71484 -8.22215,9.09594 -16.30101,19.66099 -17,32.375 0.20101,3.5895 0.54029,4.45117 2.8125,7.4375 0.92812,0.70125 1.85625,1.4025 2.8125,2.125 0.72188,0.66 1.44375,1.32 2.1875,2 9.2682,6.59072 18.48738,9.20879 29.68359,9.63281 1.3835,0.0623 1.3835,0.0623 2.79494,0.12595 2.92354,0.12994 5.84742,0.24827 8.77147,0.36624 1.99157,0.0865 3.98311,0.1737 5.97461,0.26172 4.86229,0.21324 9.72492,0.41606 14.58789,0.61328 0.29648,-0.92813 0.59297,-1.85625 0.89844,-2.8125 2.45364,-7.0999 6.84397,-11.31875 13.10156,-15.1875 6.13551,-2.94264 12.94368,-3.05845 19.5,-1.34766 7.17435,2.90213 13.44495,7.62477 17,14.59766 2.69751,7.09302 2.41424,13.99001 -0.1875,21.0625 -3.86799,8.45872 -8.94256,12.12673 -17.3125,15.6875 -6.87211,2.2907 -12.70545,1.50739 -19.25,-1.5 -6.49958,-3.53383 -9.81398,-7.71596 -13.125,-14.1875 -0.68385,-2.53024 -0.66827,-4.70313 -0.625,-7.3125 -5.94073,-0.0746 -11.88118,-0.12884 -17.82227,-0.16479 -2.0173,-0.015 -4.03457,-0.0354 -6.05175,-0.0615 -2.91447,-0.0368 -5.82851,-0.0535 -8.74317,-0.0667 -0.88896,-0.0155 -1.77792,-0.031 -2.69381,-0.0469 -8.92801,-0.002 -16.95939,1.89214 -23.99759,7.5938 -5.78812,5.97526 -6.9169,13.49813 -7.12891,21.49609 -0.0458,0.65871 -0.0915,1.31742 -0.13867,1.99609 -0.2983,14.03315 9.04635,29.02429 14.82617,41.44141 1.08182,2.33693 2.16201,4.6746 3.24115,7.01277 0.66367,1.43666 1.32913,2.8725 1.9967,4.30734 1.6055,3.46224 3.1375,6.93178 4.51215,10.49239 0.76184,0.0258 1.52367,0.0516 2.30859,0.0781 9.00326,0.49459 17.18993,2.2447 23.69141,8.9219 5.83184,6.83636 6.96511,13.54949 6.45703,22.27734 -0.90852,7.4002 -3.8028,11.87618 -9.45703,16.72266 -6.28716,4.78371 -12.54348,6.57363 -20.38281,6.37109 -7.73386,-1.09659 -13.25271,-5.35757 -18.14453,-11.21093 -5.13122,-7.52669 -5.48007,-14.22529 -4.47266,-23.16016 1.6675,-4.92014 4.10113,-8.15976 7.875,-11.6875 0.70125,-0.76313 1.4025,-1.52625 2.125,-2.3125 -0.25104,-5.59844 -2.75639,-10.43861 -5.04297,-15.45703 -0.40608,-0.9024 -0.81216,-1.8048 -1.23054,-2.73454 -0.85981,-1.90527 -1.72323,-3.80892 -2.59002,-5.71102 -1.31261,-2.88495 -2.60904,-5.77679 -3.90405,-8.66968 -0.84082,-1.85786 -1.68259,-3.71529 -2.52539,-5.57226 -0.3815,-0.85343 -0.76299,-1.70685 -1.15605,-2.58614 -4.68591,-10.39233 -4.68591,-10.39233 -12.55098,-18.26933 -0.38865,0.81598 -0.38865,0.81598 -0.78516,1.64844 -1.93965,3.75457 -4.23316,7.30117 -6.46093,10.89062 -3.87667,7.64973 -5.2003,14.98938 -5.18628,23.50049 -0.0102,0.94756 -0.0204,1.89511 -0.0309,2.87138 -0.0299,3.09486 -0.0394,6.1894 -0.0485,9.28438 -0.0169,2.16048 -0.035,4.32096 -0.0544,6.48142 -0.0473,5.65844 -0.0772,11.31685 -0.10344,16.97543 -0.0299,5.7853 -0.0764,11.57046 -0.12146,17.35565 -0.0858,11.33066 -0.15328,22.66135 -0.20899,33.99219 0.94166,0.14172 1.88332,0.28343 2.85352,0.42944 7.39536,1.34102 12.65021,6.55856 16.95507,12.44556 4.12105,7.35032 4.36357,15.92193 3.19141,24.125 -2.52141,7.77745 -6.99964,12.9326 -14,17 -1.01063,0.61875 -2.02125,1.2375 -3.0625,1.875 -6.68262,2.5443 -15.11518,2.21854 -21.88672,0.28125 -7.77272,-3.52332 -12.94233,-9.20894 -16.48828,-16.90625 -2.89194,-8.25907 -2.70558,-15.58952 0.9375,-23.5625 4.05895,-7.31377 9.62007,-12.64298 17.5,-15.6875 1.32,0 2.64,0 4,0 -0.0149,-12.5533 -0.0567,-25.10619 -0.13209,-37.65928 -0.0342,-5.83002 -0.0594,-11.65977 -0.0635,-17.48989 -0.004,-5.63479 -0.0329,-11.26899 -0.0779,-16.90359 -0.0129,-2.14115 -0.0173,-4.28237 -0.0127,-6.42355 0.0236,-14.37375 -0.61913,-26.72272 -9.71385,-38.58619 -0.63937,-0.85723 -1.27875,-1.71445 -1.9375,-2.59766 -2.16093,-2.4515 -4.45445,-4.37927 -7.0625,-6.33984 -4.48881,4.39062 -7.88483,9.17051 -10.82031,14.70703 -0.34443,0.64871 -0.68886,1.29742 -1.04373,1.96579 -3.99648,7.72613 -7.00407,15.80306 -10.01096,23.95218 -0.57195,1.5277 -1.14486,3.05505 -1.71875,4.58203 -1.04356,2.77859 -2.08094,5.55933 -3.11279,8.34229 -0.79007,2.10773 -1.60918,4.20523 -2.47803,6.28173 -0.97563,2.59508 -0.889,3.63614 0.18457,6.16895 1.2898,1.75336 1.2898,1.75336 2.875,3.375 5.45721,6.2443 6.69522,11.01974 6.46875,19.30469 -0.78645,7.59639 -3.59711,13.71823 -9.30859,18.84765 -7.27669,5.26547 -15.19921,6.68089 -24.03516,5.47266 -5.913016,-1.85526 -11.95177,-5.66264 -15.22266,-10.99219 -4.11529,-8.05358 -5.33816,-16.47978 -3.19922,-25.42578 3.05188,-6.94995 9.3929,-11.75321 15.73438,-15.58203 3.570734,-0.96833 6.24701,-1.10227 9.91797,-1.0625 1.08048,0.009 2.16095,0.0181 3.27417,0.0273 1.2352,0.0174 1.2352,0.0174 2.49536,0.0352 2.67893,-6.6673 5.34702,-13.33887 8.00781,-20.01343 0.90542,-2.26758 1.81327,-4.5342 2.72364,-6.7998 1.31215,-3.26674 2.61537,-6.53692 3.91699,-9.80786 0.40528,-1.00349 0.81056,-2.00698 1.22812,-3.04088 3.21723,-8.12523 5.43378,-15.59664 5.24844,-24.40053 -0.0181,-1.12535 -0.0361,-2.2507 -0.0547,-3.41016 -0.0232,-0.83402 -0.0464,-1.66804 -0.0703,-2.52734 -14.69415,-6.20256 -29.85498,-3.04217 -44.70117,0.7771 -6.78295,1.7391 -13.3035,2.82736 -20.29883,3.2229 -0.0928,1.91812 -0.0928,1.91812 -0.1875,3.875 -0.75401,6.47026 -3.0087,12.32707 -7.67578,16.98437 -7.84787,6.15639 -15.22604,8.25305 -25.13672,7.14063 -8.15777,-1.94674 -13.67642,-6.04914 -18.31641,-12.96094 -3.89691,-7.30501 -4.18418,-16.09242 -1.80078,-23.94922 3.59531,-7.893 9.16612,-12.76104 17.11719,-16.08984 2.71097,-0.31183 5.11308,-0.47892 7.8125,-0.4375 0.70705,0.01 1.4141,0.0195 2.14258,0.0295 8.75719,0.29653 13.60677,2.56209 19.54492,8.90796 2.46446,2.85565 3.70575,4.84337 4.5,8.5 0.5493,-0.18321 1.0986,-0.36642 1.66455,-0.55518 8.87142,-2.82149 17.9552,-4.3763 27.104981,-6.01904 14.623619,-2.77626 28.026629,-7.39332 36.730469,-20.17578 3.3524,-5.41841 5.57969,-9.70437 4.5,-16.25 -4.16915,-11.72573 -12.49283,-18.8258 -22.5625,-25.5625 -0.99491,-0.67603 -1.98983,-1.35207 -3.01489,-2.04858 -2.08208,-1.41455 -4.16667,-2.82539 -6.25366,-4.23267 -3.166573,-2.15463 -6.299595,-4.35115 -9.426762,-6.5625 -1.976538,-1.38545 -3.953098,-2.77087 -5.929688,-4.15625 -0.92563,-0.66137 -1.85125,-1.32274 -2.80493,-2.00415 -0.8623,-0.59804 -1.72461,-1.19609 -2.61304,-1.81226 -0.75434,-0.53182 -1.50869,-1.06363 -2.28589,-1.61157 -2.03705,-1.20068 -2.03705,-1.20068 -4.1997,-0.79443 -2.89313,1.18959 -5.31988,3.04126 -7.90894,4.78491 -6.50734,3.11029 -13.94416,3.20609 -20.82422,1.16016 -7.53095,-3.42526 -13.13855,-8.74027 -16.11328,-16.53516 -2.4462,-9.05712 -1.41075,-15.65432 3.09766,-23.91797 4.05821,-5.970967 9.99155,-9.581659 16.83984,-11.706991 8.84899,-1.212805 15.97142,1.339619 23.3125,6.1875 3.41185,3.570541 5.5157,7.408321 7.6875,11.812501 0.33,0.66 0.66,1.32 1,2 -0.165,1.15242 -0.33,2.30484 -0.5,3.49219 -0.61127,4.63229 -0.99302,9.01037 0.5,13.50781 3.73071,4.77904 9.41024,7.59839 14.587891,10.56738 3.872736,2.30013 7.460919,4.97151 11.099609,7.62012 2.76101,1.9517 5.53472,3.88476 8.3125,5.8125 0.64131,0.44569 1.28262,0.89139 1.94336,1.35059 10.37878,7.14683 20.02016,12.38631 33.05664,10.64941 5.73887,-1.72752 9.78212,-4.9243 13,-10 0.35419,-0.54321 0.70838,-1.08643 1.0733,-1.6461 4.29405,-7.97804 3.53183,-16.93264 3.53607,-25.73281 0.015,-1.78077 0.0317,-3.56153 0.0501,-5.34227 0.0435,-4.66059 0.0636,-9.321 0.0787,-13.98176 0.0197,-4.76645 0.0616,-9.5327 0.10163,-14.299014 0.0751,-9.33262 0.12552,-18.665195 0.16016,-27.998047 -1.10843,-0.140266 -2.21686,-0.280532 -3.35889,-0.425049 -6.29305,-0.993707 -10.04576,-4.943339 -14.39111,-9.387451 -5.49042,-7.778094 -7.49147,-14.614071 -6.25,-24.1875 2.16201,-8.136321 7.51577,-14.297945 14.0625,-19.375 10.67762,-5.9067663 21.57221,-4.8326245 31.9375,1.375 z"
     fill="#3684b4"
     id="path2"
     style="display:inline" />
  <path
     d="m 266.51831,65.994999 c 6.92736,3.185113 11.75258,7.847057 14.88672,14.808594 2.49261,7.840385 2.03125,15.201204 -1.3125,22.687497 -3.13279,5.68515 -6.83266,8.72883 -12.5625,11.625 -0.61875,0.37383 -1.2375,0.74766 -1.875,1.13281 -2.89904,1.18307 -5.37787,1.13175 -8.5,1.11719 -1.10086,0.005 -2.20172,0.0103 -3.33594,0.0156 -3.38738,-0.27356 -6.1235,-1.06061 -9.28906,-2.26562 -6.17282,6.61126 -12.14409,13.29251 -17.8125,20.34765 -2.19062,2.65613 -4.47688,5.1859 -6.8125,7.71485 -8.22215,9.09593 -16.30101,19.66099 -17,32.37499 0.20101,3.5895 0.54029,4.45117 2.8125,7.4375 1.39219,1.05188 1.39219,1.05188 2.8125,2.125 0.72187,0.66 1.44375,1.32 2.1875,2 9.2682,6.59072 18.48738,9.20879 29.68359,9.63282 1.3835,0.0623 1.3835,0.0623 2.79494,0.12594 2.92354,0.12995 5.84742,0.24827 8.77147,0.36624 1.99157,0.0865 3.98311,0.17371 5.97461,0.26172 4.86229,0.21324 9.72492,0.41606 14.58789,0.61328 0.29648,-0.92812 0.59297,-1.85625 0.89844,-2.8125 2.45364,-7.09989 6.84397,-11.31875 13.10156,-15.1875 6.13551,-2.94264 12.94368,-3.05844 19.5,-1.34765 7.17435,2.90212 13.44495,7.62476 17,14.59765 2.69751,7.09302 2.41424,13.99002 -0.1875,21.0625 -3.86799,8.45872 -8.94256,12.12673 -17.3125,15.6875 -6.87211,2.29071 -12.70546,1.5074 -19.25,-1.5 -6.49958,-3.53383 -9.81398,-7.71595 -13.125,-14.1875 -0.68385,-2.53024 -0.66827,-4.70313 -0.625,-7.3125 -5.94073,-0.0747 -11.88118,-0.12883 -17.82227,-0.16479 -2.0173,-0.015 -4.03457,-0.0354 -6.05176,-0.0615 -2.91446,-0.0368 -5.8285,-0.0535 -8.74316,-0.0667 -0.88896,-0.0155 -1.77792,-0.031 -2.69382,-0.0469 -8.928,-0.002 -16.95938,1.89214 -23.99759,7.5938 -5.78811,5.97526 -6.91689,13.49814 -7.1289,21.49609 -0.0458,0.65871 -0.0915,1.31743 -0.13867,1.9961 -0.29831,14.03315 9.04635,29.02428 14.82617,41.4414 1.08182,2.33693 2.16201,4.6746 3.24115,7.01278 0.66367,1.43665 1.32912,2.87249 1.9967,4.30734 1.6055,3.46224 3.1375,6.93178 4.51215,10.49238 0.76183,0.0258 1.52367,0.0516 2.30859,0.0781 9.00326,0.49456 17.18993,2.24468 23.69141,8.92187 5.83183,6.83636 6.96511,13.54949 6.45703,22.27735 -0.90852,7.40019 -3.8028,11.87617 -9.45703,16.72265 -6.28716,4.78371 -12.54348,6.57363 -20.38281,6.3711 -7.73386,-1.09659 -13.25271,-5.35758 -18.14454,-11.21094 -5.13121,-7.52669 -5.48006,-14.22528 -4.47265,-23.16016 1.66749,-4.92014 4.10113,-8.15975 7.875,-11.6875 0.70125,-0.76312 1.4025,-1.52625 2.125,-2.3125 -0.25105,-5.59844 -2.75639,-10.4386 -5.04297,-15.45703 -0.40608,-0.9024 -0.81216,-1.8048 -1.23055,-2.73454 -0.8598,-1.90527 -1.72322,-3.80891 -2.59001,-5.71101 -1.31261,-2.88496 -2.60904,-5.77679 -3.90405,-8.66968 -0.84082,-1.85786 -1.68259,-3.7153 -2.52539,-5.57227 -0.3815,-0.85342 -0.76299,-1.70685 -1.15605,-2.58613 -2.34679,-5.11345 -5.02202,-9.68419 -8.30631,-14.25644 -1.27672,-2.06472 -1.93364,-3.60955 -2.24467,-6.0129 1.32812,-2.29687 1.32812,-2.29687 3.25,-4.75 8.92508,-12.10753 9.31417,-27.81643 7.48193,-42.38086 -2.3801,-13.42553 -9.30301,-26.27748 -17.48193,-37.04882 -1.25,-1.82031 -1.25,-1.82031 -1.25,-3.82031 0.90621,-0.4009 1.81242,-0.8018 2.74609,-1.21485 11.7213,-5.38576 18.75172,-12.70939 26.79297,-22.7539 2.30721,-2.84189 4.66937,-5.62095 7.0647,-8.38819 2.03562,-2.35287 4.0549,-4.71937 6.07055,-7.08935 1.15656,-1.35549 2.32418,-2.70153 3.49366,-4.0459 1.48071,-1.79582 2.79584,-3.42523 3.83203,-5.50781 -0.2849,-2.67342 -0.2849,-2.67342 -2,-5 -3.53553,-6.527135 -3.9175,-12.642531 -3,-20.000002 2.55665,-8.294893 7.44137,-13.318808 14.76953,-17.628882 6.57092,-2.788868 14.41905,-2.4921 21.21875,-0.492187 z"
     fill="#7f8181"
     id="path3" />
  <path
     d="m 179.40503,184.74109 c 6.06463,3.07563 9.75319,8.00857 12.125,14.375 1.00879,7.42083 -0.86113,13.32114 -4.5625,19.6875 -4.16471,3.95114 -9.39266,6.12081 -14.70313,8.19922 -17.56788,6.98292 -29.8011,24.00114 -37.27148,40.70385 -2.75294,6.41603 -5.33073,12.8998 -7.87646,19.4004 -0.97064,2.46998 -1.95628,4.93366 -2.9419,7.3977 -0.61942,1.57711 -1.23794,3.15457 -1.85547,4.73242 -0.29571,0.73231 -0.59141,1.46461 -0.89608,2.2191 -1.41777,3.67517 -2.18478,5.91663 -0.89298,9.65981 1.2898,1.75336 1.2898,1.75336 2.875,3.375 5.45721,6.2443 6.69522,11.01974 6.46875,19.30469 -0.78645,7.59639 -3.59711,13.71823 -9.30859,18.84765 -7.27669,5.26547 -15.19921,6.68089 -24.03516,5.47266 -5.913016,-1.85526 -11.951774,-5.66264 -15.222656,-10.99219 -4.115294,-8.05358 -5.338164,-16.47978 -3.199224,-25.42578 3.051881,-6.94995 9.3929,-11.75321 15.73438,-15.58203 3.570734,-0.96833 6.24701,-1.10227 9.91797,-1.0625 1.08048,0.009 2.16095,0.0181 3.27417,0.0273 0.82347,0.0116 1.64694,0.0232 2.49536,0.0352 2.67893,-6.6673 5.34702,-13.33887 8.00781,-20.01343 0.90542,-2.26758 1.81327,-4.5342 2.72364,-6.7998 1.31215,-3.26674 2.61537,-6.53692 3.91699,-9.80787 0.40528,-1.00349 0.81056,-2.00697 1.22812,-3.04087 3.21723,-8.12523 5.43378,-15.59664 5.24844,-24.40053 -0.0181,-1.12535 -0.0361,-2.2507 -0.0547,-3.41016 -0.0232,-0.83402 -0.0464,-1.66804 -0.0703,-2.52734 -14.69415,-6.20256 -29.85498,-3.04218 -44.701172,0.7771 -6.782948,1.73909 -13.303498,2.82736 -20.298828,3.2229 -0.0928,1.91812 -0.0928,1.91812 -0.1875,3.875 -0.75401,6.47026 -3.0087,12.32707 -7.67578,16.98437 -7.84787,6.15639 -15.22604,8.25305 -25.13672,7.14063 -8.15777,-1.94674 -13.67642,-6.04915 -18.31641,-12.96094 -3.89691,-7.30501 -4.18418,-16.09242 -1.80078,-23.94922 3.59531,-7.893 9.16612,-12.76104 17.11719,-16.08984 2.71097,-0.31183 5.11308,-0.47892 7.8125,-0.4375 0.70705,0.01 1.4141,0.0195 2.14258,0.0295 8.75719,0.29653 13.60677,2.56208 19.54492,8.90796 2.46446,2.85564 3.70575,4.84336 4.5,8.5 0.5493,-0.18321 1.0986,-0.36642 1.66455,-0.55518 8.87142,-2.8215 17.955195,-4.3763 27.104981,-6.01904 10.300919,-1.95561 20.563579,-4.48952 28.730469,-11.42578 0.77344,-0.63938 1.54688,-1.27875 2.34375,-1.9375 2.27128,-2.06501 2.27128,-2.06501 4.25,-4.8125 0.94359,-1.11375 0.94359,-1.11375 1.90625,-2.25 0.99,0 1.98,0 3,0 0.26555,-0.5891 0.53109,-1.17821 0.80469,-1.78516 4.24439,-7.86461 12.61004,-13.14475 20.88281,-15.90234 0.70512,-0.21012 1.41023,-0.42024 2.13672,-0.63672 2.25095,-0.65627 2.25095,-0.65627 4.61719,-1.73437 5.98654,-2.20269 12.56712,-1.67085 18.43359,0.68359 z"
     fill="#7e8080"
     id="path4" />
  <path
     d="m 206.53003,221.11609 c 1.11781,3.35343 0.83344,3.75453 0,7 -0.22651,2.60341 -0.36839,5.14293 -0.4375,7.75 -0.0458,0.65871 -0.0915,1.31742 -0.13867,1.99609 -0.2983,14.03315 9.04635,29.02429 14.82617,41.44141 1.08182,2.33693 2.16201,4.6746 3.24115,7.01277 0.66367,1.43666 1.32913,2.8725 1.9967,4.30734 1.6055,3.46224 3.1375,6.93178 4.51215,10.49239 0.76184,0.0258 1.52367,0.0516 2.30859,0.0781 9.00326,0.49455 17.18993,2.24467 23.69141,8.92187 5.83184,6.83636 6.96511,13.54949 6.45703,22.27734 -0.90852,7.4002 -3.8028,11.87618 -9.45703,16.72266 -6.28716,4.78371 -12.54348,6.57363 -20.38281,6.37109 -7.73386,-1.09659 -13.25271,-5.35757 -18.14453,-11.21093 -5.13122,-7.52669 -5.48007,-14.22529 -4.47266,-23.16016 1.6675,-4.92014 4.10113,-8.15976 7.875,-11.6875 1.05187,-1.14469 1.05187,-1.14469 2.125,-2.3125 -0.25104,-5.59844 -2.75639,-10.43861 -5.04297,-15.45703 -0.40608,-0.9024 -0.81216,-1.8048 -1.23054,-2.73455 -0.85981,-1.90526 -1.72323,-3.80891 -2.59002,-5.71101 -1.31261,-2.88495 -2.60904,-5.77679 -3.90405,-8.66968 -0.84082,-1.85786 -1.68259,-3.71529 -2.52539,-5.57226 -0.3815,-0.85343 -0.76299,-1.70685 -1.15605,-2.58614 -2.34679,-5.11344 -5.02201,-9.68419 -8.30631,-14.25644 -1.27354,-2.05959 -1.92369,-3.6176 -2.24467,-6.01289 1.22266,-2.05078 1.22266,-2.05078 3.0625,-4.3125 4.73932,-6.34764 7.25134,-13.30794 9.9375,-20.6875 z"
     fill="#213956"
     id="path5" />
  <path
     d="m 67.27612,95.928589 c 6.872152,3.620683 9.928705,8.444361 13.253906,15.187501 0.495,0.99 0.495,0.99 1,2 -0.165,1.15242 -0.33,2.30484 -0.5,3.49219 -0.611268,4.63229 -0.993022,9.01037 0.5,13.50781 3.730714,4.77903 9.41024,7.59839 14.587891,10.56738 3.872566,2.30002 7.461983,4.97027 11.099613,7.62012 5.89658,4.19675 11.88862,8.20856 18.02417,12.04761 2.32674,1.46149 4.3371,2.81366 6.28833,4.76489 -0.92813,1.11375 -0.92813,1.11375 -1.875,2.25 -1.74262,2.25515 -2.9185,4.20656 -4.125,6.75 -0.66069,-0.61984 -0.66069,-0.61984 -1.33472,-1.2522 -5.75173,-5.22851 -11.9709,-9.4548 -18.47778,-13.6853 -8.540282,-5.5834 -16.929806,-11.30626 -25.055668,-17.48242 -2.793949,-2.04607 -2.793949,-2.04607 -6.131836,-2.58008 -2.835576,1.41779 -5.372285,3.23031 -8,5 -6.507342,3.11029 -13.944161,3.20609 -20.824218,1.16016 -7.530956,-3.42526 -13.138554,-8.74027 -16.113282,-16.53516 -2.446195,-9.05712 -1.410751,-15.65432 3.097657,-23.91797 8.061474,-11.86115 21.949769,-14.589705 34.585937,-8.894531 z"
     fill="#203955"
     id="path6" />
  <path
     d="m 308.28003,179.67859 c 7.07321,3.67139 12.74408,8.41301 15.625,15.98828 2.15483,8.44423 0.6764,15.85452 -3.375,23.44922 -4.27174,6.65888 -10.68189,9.56063 -18,12 -8.4259,1.26308 -15.04977,-1.26303 -22,-6 -4.27976,-4.23845 -7.94775,-9.4629 -8.03906,-15.64453 0.0129,-0.77731 0.0258,-1.55461 0.0391,-2.35547 -0.98843,0.0157 -0.98843,0.0157 -1.99683,0.0317 -24.1897,0.33371 -24.1897,0.33371 -35.00317,-2.03174 0.66,-1.32 1.32,-2.64 2,-4 -0.66,-0.99 -1.32,-1.98 -2,-3 12.21,0 24.42,0 37,0 0.66,-1.98 1.32,-3.96 2,-6 6.66013,-12.29562 20.59777,-17.75776 33.75,-12.4375 z"
     fill="#213957"
     id="path7" />
  <path
     d="m 37.34253,213.67859 c 0.707051,0.01 1.414102,0.0195 2.142578,0.0295 7.225877,0.24468 12.032373,1.55259 17.291016,6.53687 6.513776,7.04788 9.185175,12.87143 9.035156,22.66015 -0.843384,6.62994 -4.010418,13.97993 -9.28125,18.21094 -7.750703,5.11995 -14.735226,7.44174 -24,6 -8.16276,-1.9969 -13.659535,-6.024 -18.316406,-12.96094 -3.896911,-7.30501 -4.184186,-16.09242 -1.800781,-23.94922 4.72349,-10.36978 13.37518,-16.70462 24.929687,-16.52734 z"
     fill="#388bbe"
     id="path8" />
  <path
     d="m 179.40503,184.74109 c 6.06463,3.07563 9.75319,8.00857 12.125,14.375 1.00879,7.42083 -0.86113,13.32114 -4.5625,19.6875 -5.30975,5.03745 -11.17867,7.60728 -18.5,8 -7.59643,-0.33241 -12.27754,-3.89114 -17.375,-9.25 -3.83633,-5.98468 -4.33593,-11.46689 -3.5625,-18.4375 1.76624,-6.17654 5.67337,-10.52274 11,-14 6.70015,-3.19159 14.00658,-3.13156 20.875,-0.375 z"
     fill="#fcfdfd"
     id="path10" />
  <path
     d="m 265.53003,136.11609 c 5.67476,1.96434 9.314,5.62801 12,11 0.37365,5.6047 0.20861,9.18708 -3,14 -3.96275,4.00606 -7.57749,6.11716 -13.25,6.375 -5.15625,-0.0588 -8.11139,-1.835 -11.75,-5.375 -3.6085,-3.95771 -3.50645,-8.20724 -3.34766,-13.34375 0.67575,-5.16302 3.26666,-7.70095 7.03516,-11.03125 4.29743,-2.10817 7.61286,-2.30966 12.3125,-1.625 z"
     fill="#398cbe"
     id="path16" />
  <path
     d="m 130.61987,91.069209 c 3.5944,2.401333 6.39292,4.941414 7.91016,9.046871 0.81465,4.83463 1.10938,9.07335 -1.39454,13.42188 -4.37976,5.229 -7.7249,7.30379 -14.54296,7.95312 -4.30565,-0.12162 -6.74644,-1.58649 -10.0625,-4.375 -4.02233,-4.45717 -5.38526,-7.79196 -5.27344,-13.875 0.68232,-5.302628 3.27373,-8.345226 7.39844,-11.562496 5.02499,-2.480149 10.81064,-2.960078 15.96484,-0.609375 z"
     fill="#398ec0"
     id="path17" />
  <path
     d="m 206.53003,221.11609 c 1.21065,3.63195 0.62785,5.06532 -0.4375,8.6875 -0.43119,1.4908 -0.43119,1.4908 -0.87109,3.01172 -0.22817,0.75926 -0.45633,1.51851 -0.69141,2.30078 -0.66,0 -1.32,0 -2,0 0.53852,-5.27749 1.77344,-9.25646 4,-14 z"
     fill="#2e4150"
     id="path35" />
  <path
     d="m 128.53003,163.11609 c 0.99,0.66 1.98,1.32 3,2 -0.61875,0.7425 -1.2375,1.485 -1.875,2.25 -1.72937,2.23801 -2.98607,4.1874 -4.125,6.75 -1,-2 -1,-2 -0.47656,-3.91016 0.42152,-1.06541 0.42152,-1.06541 0.85156,-2.15234 0.27586,-0.71285 0.55172,-1.4257 0.83594,-2.16016 0.78906,-1.77734 0.78906,-1.77734 1.78906,-2.77734 z"
     fill="#20547d"
     id="path38" />
</svg>
