<?xml version="1.0" encoding="UTF-8"?>
<svg version="1.1" xmlns="http://www.w3.org/2000/svg" width="798" height="715">
<path d="M0 0 C263.34 0 526.68 0 798 0 C798 235.95 798 471.9 798 715 C534.66 715 271.32 715 0 715 C0 479.05 0 243.1 0 0 Z " fill="#FEFEFE" transform="translate(0,0)"/>
<path d="M0 0 C6.78737331 5.73980444 10.47708648 11.69955845 11.34375 20.484375 C11.724 29.95260008 10.59767839 36.93101149 4.1328125 44.05859375 C-0.48536203 48.38027069 -5.46303064 52 -12 52 C-11.96180878 61.84979943 -11.9022532 71.69922272 -11.81609726 81.54872608 C-11.77673979 86.12323669 -11.74449418 90.69755817 -11.72900391 95.2722168 C-11.71375951 99.69450754 -11.67917779 104.11627794 -11.63169098 108.5383358 C-11.6169569 110.21780539 -11.60896361 111.89734931 -11.60811615 113.57688332 C-11.59851059 123.07600364 -11.03680923 131.21841818 -7 140 C-6.67 140.99 -6.34 141.98 -6 143 C9.70226718 137.63101174 18.68651653 126.35083828 29 114 C29.4429541 113.47019531 29.8859082 112.94039063 30.34228516 112.39453125 C32.2429624 110.11282024 34.12239025 107.8165654 35.98046875 105.5 C37.34762659 103.80758024 38.74747501 102.14114183 40.17578125 100.5 C40.83964844 99.71625 41.50351562 98.9325 42.1875 98.125 C42.77917969 97.44695312 43.37085938 96.76890625 43.98046875 96.0703125 C45.30069602 93.97105281 45.30069602 93.97105281 44.27734375 91.4296875 C43.32236415 89.61318196 42.3524461 87.80451587 41.375 86 C38.75454931 79.80006769 38.91942927 72.5058517 40.87890625 66.1484375 C44.51998497 58.19334142 49.99509316 53.39748767 58 50 C67.18306934 48.77559076 75.43323699 49.3886926 83 55 C88.5790255 59.89055001 91.36314864 65.46484638 92.38671875 72.75390625 C92.86568796 80.91767036 90.81118513 87.37604654 86 94 C83.20454965 96.49128218 80.33368131 98.31497563 77 100 C76.071875 100.56074219 76.071875 100.56074219 75.125 101.1328125 C72.22595754 102.31587762 69.7471304 102.26455539 66.625 102.25 C65.52414062 102.25515625 64.42328125 102.2603125 63.2890625 102.265625 C59.90167774 101.99205949 57.16555972 101.20501669 54 100 C47.82718004 106.61126324 41.85590977 113.29251052 36.1875 120.34765625 C33.99688111 123.00378165 31.71062271 125.53355717 29.375 128.0625 C21.15284698 137.15843584 13.07398703 147.72349273 12.375 160.4375 C12.57601176 164.02699573 12.91529028 164.88866723 15.1875 167.875 C16.115625 168.57625 17.04375 169.2775 18 170 C18.721875 170.66 19.44375 171.32 20.1875 172 C29.45569998 178.59071999 38.67487894 181.20878556 49.87109375 181.6328125 C51.25458763 181.69515579 51.25458763 181.69515579 52.66603088 181.75875854 C55.58957388 181.88870343 58.51345192 182.00702688 61.4375 182.125 C63.42907001 182.21147031 65.42060711 182.29870197 67.41210938 182.38671875 C72.27440314 182.59995708 77.13703125 182.80277978 82 183 C82.29648437 182.071875 82.59296875 181.14375 82.8984375 180.1875 C85.35207814 173.08760368 89.74241448 168.86874933 96 165 C102.13550872 162.05735797 108.94368227 161.94155459 115.5 163.65234375 C122.67434882 166.55446749 128.94494726 171.27710707 132.5 178.25 C135.19751476 185.34301872 134.91424108 192.24001199 132.3125 199.3125 C128.44450927 207.77122022 123.3699417 211.43922819 115 215 C108.12789108 217.29070297 102.29454595 216.50739409 95.75 213.5 C89.25041836 209.96616577 85.93602116 205.78404136 82.625 199.3125 C81.94115159 196.78226087 81.95672693 194.60936636 82 192 C76.05927213 191.9253485 70.1188227 191.87116228 64.17773438 191.83520508 C62.16043333 191.82020116 60.14316444 191.79979145 58.12597656 191.77368164 C55.21150737 191.73692647 52.29747274 191.72018932 49.3828125 191.70703125 C48.49385284 191.69154739 47.60489319 191.67606354 46.68899536 191.66011047 C37.76099011 191.6577585 29.72961194 193.55224871 22.69140625 199.25390625 C16.90328805 205.22916915 15.77451165 212.75204332 15.5625 220.75 C15.51673828 221.40871094 15.47097656 222.06742188 15.42382812 222.74609375 C15.12552642 236.77924339 24.4701847 251.77038084 30.25 264.1875 C31.33181839 266.52443073 32.41201543 268.86210037 33.4911499 271.20027161 C34.15482082 272.63693035 34.82027641 274.07276655 35.487854 275.50761414 C37.09334797 278.96985354 38.62535418 282.43939275 40 286 C40.76183594 286.02578125 41.52367187 286.0515625 42.30859375 286.078125 C51.31184677 286.57268571 59.49851953 288.32280384 66 295 C71.83183457 301.83636109 72.96510631 308.54948875 72.45703125 317.27734375 C71.54850826 324.6775353 68.65422711 329.15351962 63 334 C56.71283825 338.78371003 50.45652027 340.5736297 42.6171875 340.37109375 C34.88332734 339.27450164 29.36447806 335.01351552 24.47265625 329.16015625 C19.34144091 321.63346637 18.99259076 314.93487259 20 306 C21.66749519 301.07985987 24.10113355 297.84024473 27.875 294.3125 C28.57625 293.549375 29.2775 292.78625 30 292 C29.74895611 286.40156065 27.24360796 281.561395 24.95703125 276.54296875 C24.55095139 275.64056961 24.14487152 274.73817047 23.72648621 273.8084259 C22.86667981 271.90315732 22.00326178 269.999515 21.13647461 268.09741211 C19.82385684 265.21246076 18.52743302 262.32062417 17.23242188 259.42773438 C16.39159747 257.56987208 15.54983028 255.71243612 14.70703125 253.85546875 C14.32553421 253.00204391 13.94403717 252.14861908 13.55097961 251.26933289 C8.86507435 240.87700071 8.86507435 240.87700071 1 233 C0.61134766 233.81597656 0.61134766 233.81597656 0.21484375 234.6484375 C-1.72481313 238.40301449 -4.01832191 241.94960723 -6.24609375 245.5390625 C-10.12276023 253.18878744 -11.44639514 260.52843519 -11.43237305 269.03955078 C-11.4425647 269.98710739 -11.45275635 270.934664 -11.46325684 271.91093445 C-11.49316359 275.00578902 -11.50261846 278.10033297 -11.51171875 281.1953125 C-11.52858199 283.35579438 -11.54673443 285.51626654 -11.56611633 287.67672729 C-11.61344362 293.3351742 -11.64336456 298.9935817 -11.66955566 304.65216064 C-11.69944858 310.43745704 -11.7459488 316.22261793 -11.79101562 322.0078125 C-11.87685214 333.33847053 -11.94428458 344.6691566 -12 356 C-11.05833984 356.14171631 -10.11667969 356.28343262 -9.14648438 356.42944336 C-1.75111839 357.77045595 3.50372796 362.98800404 7.80859375 368.875 C11.92963716 376.22532005 12.17215821 384.79692754 11 393 C8.47858682 400.77744726 4.00036087 405.93259665 -3 410 C-4.010625 410.61875 -5.02125 411.2375 -6.0625 411.875 C-12.74512343 414.41930158 -21.17768115 414.09353758 -27.94921875 412.15625 C-35.72193837 408.63293452 -40.89154653 402.94731362 -44.4375 395.25 C-47.32943817 386.99092768 -47.14308506 379.66048125 -43.5 371.6875 C-39.44104704 364.37372627 -33.87992773 359.04451753 -26 356 C-24.68 356 -23.36 356 -22 356 C-22.01492111 343.446704 -22.05672201 330.89380526 -22.13209057 318.34071827 C-22.16626532 312.51070402 -22.19145576 306.6809492 -22.19555664 300.85083008 C-22.19985996 295.21604464 -22.22849114 289.58184347 -22.27343178 283.94724083 C-22.28634192 281.80609233 -22.29073768 279.66487369 -22.28615379 277.52369118 C-22.26256655 263.14994138 -22.90528742 250.80096581 -32 238.9375 C-32.639375 238.08027344 -33.27875 237.22304688 -33.9375 236.33984375 C-36.09842909 233.88833518 -38.39194852 231.96056648 -41 230 C-45.48881169 234.39061894 -48.88482956 239.17051078 -51.8203125 244.70703125 C-52.16474396 245.35574188 -52.50917542 246.00445251 -52.86404419 246.67282104 C-56.8605213 254.3989456 -59.86811589 262.47588255 -62.875 270.625 C-63.44695478 272.15270421 -64.01986843 273.68004979 -64.59375 275.20703125 C-65.63730865 277.98562131 -66.67469303 280.7663597 -67.70654297 283.54931641 C-68.496609 285.65705391 -69.31572001 287.75455261 -70.18457031 289.83105469 C-71.16020584 292.42612836 -71.07357804 293.46718968 -70 296 C-68.71020085 297.75335541 -68.71020085 297.75335541 -67.125 299.375 C-61.66779296 305.61930421 -60.42978218 310.39473983 -60.65625 318.6796875 C-61.44270043 326.27608367 -64.25336305 332.39792478 -69.96484375 337.52734375 C-77.24152664 342.79281294 -85.16405519 344.20823002 -94 343 C-99.91301555 341.14474177 -105.95177432 337.33736453 -109.22265625 332.0078125 C-113.33795074 323.95422543 -114.56082092 315.52802802 -112.421875 306.58203125 C-109.36999874 299.63207668 -103.02898004 294.82881814 -96.6875 291 C-93.11676619 290.03166541 -90.44048997 289.89773335 -86.76953125 289.9375 C-85.68905518 289.94652344 -84.6085791 289.95554687 -83.49536133 289.96484375 C-82.26015747 289.98224609 -82.26015747 289.98224609 -81 290 C-78.32106808 283.33269918 -75.65297633 276.66113414 -72.9921875 269.98657227 C-72.08677014 267.71898681 -71.17892449 265.45236931 -70.26855469 263.18676758 C-68.95640465 259.92003081 -67.65318123 256.64985111 -66.3515625 253.37890625 C-65.94628326 252.37541641 -65.54100403 251.37192657 -65.1234436 250.33802795 C-61.90620994 242.21280238 -59.68965495 234.74138969 -59.875 225.9375 C-59.89304687 224.81214844 -59.91109375 223.68679688 -59.9296875 222.52734375 C-59.95289063 221.69332031 -59.97609375 220.85929688 -60 220 C-74.69415079 213.79744389 -89.85497761 216.95782507 -104.70117188 220.77709961 C-111.48411529 222.51619531 -118.00466793 223.60446426 -125 224 C-125.0928125 225.918125 -125.0928125 225.918125 -125.1875 227.875 C-125.94151454 234.34525992 -128.19619591 240.2020739 -132.86328125 244.859375 C-140.71115425 251.0157647 -148.08931897 253.11242338 -158 252 C-166.15777245 250.05325885 -171.67641726 245.95085619 -176.31640625 239.0390625 C-180.21331723 231.73405167 -180.50059218 222.94664236 -178.1171875 215.08984375 C-174.52188381 207.19684259 -168.95107228 202.3287982 -161 199 C-158.28902843 198.68816804 -155.88691888 198.52108408 -153.1875 198.5625 C-152.48044922 198.57224854 -151.77339844 198.58199707 -151.04492188 198.59204102 C-142.28772502 198.88857144 -137.43814766 201.15412742 -131.5 207.5 C-129.03553883 210.35564549 -127.79425311 212.34336611 -127 216 C-126.45069824 215.81679199 -125.90139648 215.63358398 -125.33544922 215.44482422 C-116.46402774 212.62332687 -107.38025464 211.06852114 -98.23046875 209.42578125 C-83.6068501 206.64952065 -70.20384411 202.03245706 -61.5 189.25 C-58.14760423 183.83159289 -55.92030882 179.54562779 -57 173 C-61.1691468 161.27427462 -69.4928261 154.17419964 -79.5625 147.4375 C-80.55741455 146.76146729 -81.5523291 146.08543457 -82.57739258 145.38891602 C-84.65946989 143.97437494 -86.74406302 142.56353041 -88.83105469 141.15625 C-91.99762304 139.00161736 -95.13064481 136.80509727 -98.2578125 134.59375 C-100.23435232 133.20830098 -102.210914 131.82288314 -104.1875 130.4375 C-105.11312744 129.77613037 -106.03875488 129.11476074 -106.99243164 128.43334961 C-107.85473389 127.83530518 -108.71703613 127.23726074 -109.60546875 126.62109375 C-110.35981201 126.0892749 -111.11415527 125.55745605 -111.89135742 125.00952148 C-113.92840626 123.80884465 -113.92840626 123.80884465 -116.09106445 124.21508789 C-118.98419096 125.40467757 -121.41094374 127.25634986 -124 129 C-130.50734226 132.11028901 -137.94416113 132.20609316 -144.82421875 130.16015625 C-152.35517411 126.73489784 -157.96277268 121.41988734 -160.9375 113.625 C-163.3836953 104.56788451 -162.34825156 97.97067757 -157.83984375 89.70703125 C-153.78162704 83.7360245 -147.84829041 80.12533151 -141 78 C-132.15101383 76.78719479 -125.02857657 79.33961925 -117.6875 84.1875 C-114.27564598 87.75804491 -112.17180321 91.59582537 -110 96 C-109.67 96.66 -109.34 97.32 -109 98 C-109.165 99.15242188 -109.33 100.30484375 -109.5 101.4921875 C-110.11126857 106.12448213 -110.49302234 110.50256362 -109 115 C-105.2692861 119.77903533 -99.58976045 122.59839455 -94.41210938 125.56738281 C-90.53937271 127.86750616 -86.95119518 130.53889177 -83.3125 133.1875 C-80.55149544 135.13920093 -77.77777625 137.072261 -75 139 C-74.35869141 139.44569336 -73.71738281 139.89138672 -73.05664062 140.35058594 C-62.67786192 147.49742371 -53.03648279 152.73689666 -40 151 C-34.26112705 149.27248212 -30.21788461 146.0756973 -27 141 C-26.64580994 140.45678604 -26.29161987 139.91357208 -25.92669678 139.35389709 C-21.63264981 131.37586442 -22.39486678 122.42125962 -22.390625 113.62109375 C-22.37562635 111.84032194 -22.35889569 110.05956396 -22.34051514 108.27882385 C-22.29701834 103.61822839 -22.27688193 98.95782053 -22.26177979 94.29705811 C-22.24214467 89.53060901 -22.20018203 84.76436064 -22.16015625 79.99804688 C-22.08504581 70.66542677 -22.03463859 61.332852 -22 52 C-23.10843262 51.85973389 -24.21686523 51.71946777 -25.35888672 51.57495117 C-31.65194395 50.58124393 -35.40464588 46.63161216 -39.75 42.1875 C-45.24041939 34.40940586 -47.24147405 27.57342879 -46 18 C-43.83799012 9.86367881 -38.48422873 3.70205493 -31.9375 -1.375 C-21.25988402 -7.28176629 -10.36528926 -6.20762449 0 0 Z " fill="#3684B4" transform="translate(411,105)"/>
<path d="M0 0 C6.92735753 3.1851128 11.75258275 7.84705664 14.88671875 14.80859375 C17.37932667 22.64897867 16.91797347 30.00979847 13.57421875 37.49609375 C10.44143436 43.18124168 6.74155507 46.22492194 1.01171875 49.12109375 C0.39296875 49.49492187 -0.22578125 49.86875 -0.86328125 50.25390625 C-3.76232371 51.43697137 -6.24115085 51.38564914 -9.36328125 51.37109375 C-10.46414063 51.37625 -11.565 51.38140625 -12.69921875 51.38671875 C-16.08660351 51.11315324 -18.82272153 50.32611044 -21.98828125 49.12109375 C-28.16110121 55.73235699 -34.13237148 62.41360427 -39.80078125 69.46875 C-41.99140014 72.1248754 -44.27765854 74.65465092 -46.61328125 77.18359375 C-54.83543427 86.27952959 -62.91429422 96.84458648 -63.61328125 109.55859375 C-63.41226949 113.14808948 -63.07299097 114.00976098 -60.80078125 116.99609375 C-59.40859375 118.04796875 -59.40859375 118.04796875 -57.98828125 119.12109375 C-57.26640625 119.78109375 -56.54453125 120.44109375 -55.80078125 121.12109375 C-46.53258127 127.71181374 -37.31340231 130.32987931 -26.1171875 130.75390625 C-24.73369362 130.81624954 -24.73369362 130.81624954 -23.32225037 130.87985229 C-20.39870737 131.00979718 -17.47482933 131.12812063 -14.55078125 131.24609375 C-12.55921124 131.33256406 -10.56767414 131.41979572 -8.57617188 131.5078125 C-3.71387811 131.72105083 1.14875 131.92387353 6.01171875 132.12109375 C6.30820312 131.19296875 6.6046875 130.26484375 6.91015625 129.30859375 C9.36379689 122.20869743 13.75413323 117.98984308 20.01171875 114.12109375 C26.14722747 111.17845172 32.95540102 111.06264834 39.51171875 112.7734375 C46.68606757 115.67556124 52.95666601 120.39820082 56.51171875 127.37109375 C59.20923351 134.46411247 58.92595983 141.36110574 56.32421875 148.43359375 C52.45622802 156.89231397 47.38166045 160.56032194 39.01171875 164.12109375 C32.13960983 166.41179672 26.3062647 165.62848784 19.76171875 162.62109375 C13.26213711 159.08725952 9.94773991 154.90513511 6.63671875 148.43359375 C5.95287034 145.90335462 5.96844568 143.73046011 6.01171875 141.12109375 C0.07099088 141.04644225 -5.86945855 140.99225603 -11.81054688 140.95629883 C-13.82784792 140.94129491 -15.84511681 140.9208852 -17.86230469 140.89477539 C-20.77677388 140.85802022 -23.69080851 140.84128307 -26.60546875 140.828125 C-27.49442841 140.81264114 -28.38338806 140.79715729 -29.29928589 140.78120422 C-38.22729114 140.77885225 -46.25866931 142.67334246 -53.296875 148.375 C-59.0849932 154.3502629 -60.2137696 161.87313707 -60.42578125 169.87109375 C-60.47154297 170.52980469 -60.51730469 171.18851563 -60.56445312 171.8671875 C-60.86275483 185.90033714 -51.51809655 200.89147459 -45.73828125 213.30859375 C-44.65646286 215.64552448 -43.57626582 217.98319412 -42.49713135 220.32136536 C-41.83346043 221.7580241 -41.16800484 223.1938603 -40.50042725 224.62870789 C-38.89493328 228.09094729 -37.36292707 231.5604865 -35.98828125 235.12109375 C-35.22644531 235.146875 -34.46460938 235.17265625 -33.6796875 235.19921875 C-24.67643448 235.69377946 -16.48976172 237.44389759 -9.98828125 244.12109375 C-4.15644668 250.95745484 -3.02317494 257.6705825 -3.53125 266.3984375 C-4.43977299 273.79862905 -7.33405414 278.27461337 -12.98828125 283.12109375 C-19.275443 287.90480378 -25.53176098 289.69472345 -33.37109375 289.4921875 C-41.10495391 288.39559539 -46.62380319 284.13460927 -51.515625 278.28125 C-56.64684034 270.75456012 -56.99569049 264.05596634 -55.98828125 255.12109375 C-54.32078606 250.20095362 -51.8871477 246.96133848 -48.11328125 243.43359375 C-47.41203125 242.67046875 -46.71078125 241.90734375 -45.98828125 241.12109375 C-46.23932514 235.5226544 -48.74467329 230.68248875 -51.03125 225.6640625 C-51.43732986 224.76166336 -51.84340973 223.85926422 -52.26179504 222.92951965 C-53.12160144 221.02425107 -53.98501947 219.12060875 -54.85180664 217.21850586 C-56.16442441 214.33355451 -57.46084823 211.44171792 -58.75585938 208.54882812 C-59.59668378 206.69096583 -60.43845097 204.83352987 -61.28125 202.9765625 C-61.66274704 202.12313766 -62.04424408 201.26971283 -62.43730164 200.39042664 C-64.78408842 195.27698298 -67.45931472 190.70623557 -70.74360657 186.13398743 C-72.02032562 184.06927144 -72.67724908 182.52443925 -72.98828125 180.12109375 C-71.66015625 177.82421875 -71.66015625 177.82421875 -69.73828125 175.37109375 C-60.81319696 163.26355909 -60.4241139 147.5546572 -62.25634766 132.99023438 C-64.63645049 119.56470382 -71.55936411 106.71274803 -79.73828125 95.94140625 C-80.98828125 94.12109375 -80.98828125 94.12109375 -80.98828125 92.12109375 C-80.08207031 91.72019531 -79.17585938 91.31929688 -78.2421875 90.90625 C-66.52088959 85.52048373 -59.49047217 78.19685679 -51.44921875 68.15234375 C-49.14201417 65.31045367 -46.77985315 62.53139176 -44.38452148 59.76416016 C-42.34890087 57.41128774 -40.32961771 55.04479028 -38.31396484 52.67480469 C-37.15740734 51.31931078 -35.98978528 49.97327316 -34.8203125 48.62890625 C-33.33960427 46.83308162 -32.02446816 45.20367631 -30.98828125 43.12109375 C-31.27317548 40.44768047 -31.27317548 40.44768047 -32.98828125 38.12109375 C-36.52381171 31.5939606 -36.90578064 25.47856502 -35.98828125 18.12109375 C-33.43162864 9.8261764 -28.54690798 4.80226067 -21.21875 0.4921875 C-14.64782563 -2.29668125 -6.79970491 -1.99991321 0 0 Z " fill="#7F8181" transform="translate(486.98828125,155.87890625)"/>
<path d="M0 0 C6.06462906 3.07563331 9.75319484 8.00857562 12.125 14.375 C13.1337915 21.79583613 11.26387046 27.69614281 7.5625 34.0625 C3.39778798 38.01363705 -1.83015711 40.18331149 -7.140625 42.26171875 C-24.70851104 49.24463748 -36.94173235 66.26286103 -44.41210938 82.96557617 C-47.16504938 89.38159873 -49.74284117 95.86537259 -52.28857422 102.3659668 C-53.25921437 104.83594775 -54.24485388 107.29963469 -55.23046875 109.76367188 C-55.84989149 111.34077964 -56.4684147 112.91824108 -57.0859375 114.49609375 C-57.38164642 115.22839706 -57.67735535 115.96070038 -57.98202515 116.7151947 C-59.39978552 120.39036439 -60.16680078 122.63182327 -58.875 126.375 C-57.58520085 128.12835541 -57.58520085 128.12835541 -56 129.75 C-50.54279296 135.99430421 -49.30478218 140.76973983 -49.53125 149.0546875 C-50.31770043 156.65108367 -53.12836305 162.77292478 -58.83984375 167.90234375 C-66.11652664 173.16781294 -74.03905519 174.58323002 -82.875 173.375 C-88.78801555 171.51974177 -94.82677432 167.71236453 -98.09765625 162.3828125 C-102.21295074 154.32922543 -103.43582092 145.90302802 -101.296875 136.95703125 C-98.24499874 130.00707668 -91.90398004 125.20381814 -85.5625 121.375 C-81.99176619 120.40666541 -79.31548997 120.27273335 -75.64453125 120.3125 C-74.56405518 120.32152344 -73.4835791 120.33054687 -72.37036133 120.33984375 C-71.54689209 120.35144531 -70.72342285 120.36304688 -69.875 120.375 C-67.19606808 113.70769918 -64.52797633 107.03613414 -61.8671875 100.36157227 C-60.96177014 98.09398681 -60.05392449 95.82736931 -59.14355469 93.56176758 C-57.83140465 90.29503081 -56.52818123 87.02485111 -55.2265625 83.75390625 C-54.82128326 82.75041641 -54.41600403 81.74692657 -53.9984436 80.71302795 C-50.78120994 72.58780238 -48.56465495 65.11638969 -48.75 56.3125 C-48.76804687 55.18714844 -48.78609375 54.06179688 -48.8046875 52.90234375 C-48.82789063 52.06832031 -48.85109375 51.23429687 -48.875 50.375 C-63.56915079 44.17244389 -78.72997761 47.33282507 -93.57617188 51.15209961 C-100.35911529 52.89119531 -106.87966793 53.97946426 -113.875 54.375 C-113.9678125 56.293125 -113.9678125 56.293125 -114.0625 58.25 C-114.81651454 64.72025992 -117.07119591 70.5770739 -121.73828125 75.234375 C-129.58615425 81.3907647 -136.96431897 83.48742338 -146.875 82.375 C-155.03277245 80.42825885 -160.55141726 76.32585619 -165.19140625 69.4140625 C-169.08831723 62.10905167 -169.37559218 53.32164236 -166.9921875 45.46484375 C-163.39688381 37.57184259 -157.82607228 32.7037982 -149.875 29.375 C-147.16402843 29.06316804 -144.76191888 28.89608408 -142.0625 28.9375 C-141.35544922 28.94724854 -140.64839844 28.95699707 -139.91992188 28.96704102 C-131.16272502 29.26357144 -126.31314766 31.52912742 -120.375 37.875 C-117.91053883 40.73064549 -116.66925311 42.71836611 -115.875 46.375 C-115.32569824 46.19179199 -114.77639648 46.00858398 -114.21044922 45.81982422 C-105.33902774 42.99832687 -96.25525464 41.44352114 -87.10546875 39.80078125 C-76.8045539 37.8451761 -66.54188737 35.31126051 -58.375 28.375 C-57.6015625 27.735625 -56.828125 27.09625 -56.03125 26.4375 C-53.75997146 24.37249365 -53.75997146 24.37249365 -51.78125 21.625 C-50.83765625 20.51125 -50.83765625 20.51125 -49.875 19.375 C-48.885 19.375 -47.895 19.375 -46.875 19.375 C-46.60945313 18.78589844 -46.34390625 18.19679688 -46.0703125 17.58984375 C-41.82591839 9.72523113 -33.46027038 4.44509013 -25.1875 1.6875 C-24.48238281 1.47738281 -23.77726563 1.26726562 -23.05078125 1.05078125 C-20.7998329 0.39450692 -20.7998329 0.39450692 -18.43359375 -0.68359375 C-12.44705405 -2.88627477 -5.86646737 -2.35443507 0 0 Z " fill="#7E8080" transform="translate(399.875,274.625)"/>
<path d="M0 0 C1.11780914 3.35342741 0.83344484 3.75453266 0 7 C-0.22650863 9.60341569 -0.36839115 12.14292816 -0.4375 14.75 C-0.48326172 15.40871094 -0.52902344 16.06742187 -0.57617188 16.74609375 C-0.87447358 30.77924339 8.4701847 45.77038084 14.25 58.1875 C15.33181839 60.52443073 16.41201543 62.86210037 17.4911499 65.20027161 C18.15482082 66.63693035 18.82027641 68.07276655 19.487854 69.50761414 C21.09334797 72.96985354 22.62535418 76.43939275 24 80 C24.76183594 80.02578125 25.52367187 80.0515625 26.30859375 80.078125 C35.31184677 80.57268571 43.49851953 82.32280384 50 89 C55.83183457 95.83636109 56.96510631 102.54948875 56.45703125 111.27734375 C55.54850826 118.6775353 52.65422711 123.15351962 47 128 C40.71283825 132.78371003 34.45652027 134.5736297 26.6171875 134.37109375 C18.88332734 133.27450164 13.36447806 129.01351552 8.47265625 123.16015625 C3.34144091 115.63346637 2.99259076 108.93487259 4 100 C5.66749519 95.07985987 8.10113355 91.84024473 11.875 88.3125 C12.926875 87.1678125 12.926875 87.1678125 14 86 C13.74895611 80.40156065 11.24360796 75.561395 8.95703125 70.54296875 C8.55095139 69.64056961 8.14487152 68.73817047 7.72648621 67.8084259 C6.86667981 65.90315732 6.00326178 63.999515 5.13647461 62.09741211 C3.82385684 59.21246076 2.52743302 56.32062417 1.23242188 53.42773438 C0.39159747 51.56987208 -0.45016972 49.71243612 -1.29296875 47.85546875 C-1.67446579 47.00204391 -2.05596283 46.14861908 -2.44902039 45.26933289 C-4.79580717 40.15588923 -7.47103347 35.58514182 -10.75532532 31.01289368 C-12.02887335 28.95330588 -12.67901634 27.39528751 -13 25 C-11.77734375 22.94921875 -11.77734375 22.94921875 -9.9375 20.6875 C-5.19818288 14.3398604 -2.68616049 7.37956179 0 0 Z " fill="#213956" transform="translate(427,311)"/>
<path d="M0 0 C6.87215183 3.62068311 9.92870486 8.44436253 13.25390625 15.1875 C13.74890625 16.1775 13.74890625 16.1775 14.25390625 17.1875 C14.08890625 18.33992188 13.92390625 19.49234375 13.75390625 20.6796875 C13.14263768 25.31198213 12.76088391 29.69006362 14.25390625 34.1875 C17.98462015 38.96653533 23.6641458 41.78589455 28.84179688 44.75488281 C32.71436272 47.05490471 36.30378094 49.72514921 39.94140625 52.375 C45.83799442 56.57175072 51.83002552 60.58356121 57.96557617 64.42260742 C60.29231837 65.88410436 62.30267721 67.23627096 64.25390625 69.1875 C63.32578125 70.30125 63.32578125 70.30125 62.37890625 71.4375 C60.63628787 73.69265319 59.46041063 75.64405832 58.25390625 78.1875 C57.59322144 77.56766235 57.59322144 77.56766235 56.91918945 76.93530273 C51.16746348 71.70679217 44.94829374 67.48049676 38.44140625 63.25 C29.90112807 57.66659683 21.51160374 51.94374263 13.38574219 45.76757812 C10.59179336 43.72151044 10.59179336 43.72151044 7.25390625 43.1875 C4.41832958 44.60528834 1.88162125 46.41781438 -0.74609375 48.1875 C-7.25343601 51.29778901 -14.69025488 51.39359316 -21.5703125 49.34765625 C-29.10126786 45.92239784 -34.70886643 40.60738734 -37.68359375 32.8125 C-40.12978905 23.75538451 -39.09434531 17.15817757 -34.5859375 8.89453125 C-26.52446325 -2.96661876 -12.63616754 -5.6951741 0 0 Z " fill="#203955" transform="translate(287.74609375,185.8125)"/>
<path d="M0 0 C7.07320933 3.67139359 12.74408047 8.41300623 15.625 15.98828125 C17.77982649 24.43250757 16.30139495 31.84280583 12.25 39.4375 C7.97826424 46.09638221 1.56811342 48.99812886 -5.75 51.4375 C-14.17589654 52.70058506 -20.79977355 50.1744699 -27.75 45.4375 C-32.02975539 41.19905499 -35.69775327 35.97460375 -35.7890625 29.79296875 C-35.77617187 29.01566406 -35.76328125 28.23835938 -35.75 27.4375 C-36.73842896 27.45321045 -36.73842896 27.45321045 -37.74682617 27.46923828 C-61.9365254 27.80294757 -61.9365254 27.80294757 -72.75 25.4375 C-72.09 24.1175 -71.43 22.7975 -70.75 21.4375 C-71.41 20.4475 -72.07 19.4575 -72.75 18.4375 C-60.54 18.4375 -48.33 18.4375 -35.75 18.4375 C-35.09 16.4575 -34.43 14.4775 -33.75 12.4375 C-27.08987218 0.14187941 -13.15222578 -5.320258 0 0 Z " fill="#213957" transform="translate(528.75,269.5625)"/>
<path d="M0 0 C0.70705078 0.00974854 1.41410156 0.01949707 2.14257812 0.02954102 C9.36845475 0.27421889 14.17495112 1.58212759 19.43359375 6.56640625 C25.94737029 13.61428924 28.61876879 19.43783672 28.46875 29.2265625 C27.62536564 35.85650069 24.45833243 43.20649166 19.1875 47.4375 C11.43679732 52.55744667 4.45227371 54.87924422 -4.8125 53.4375 C-12.97525958 51.44060173 -18.47203518 47.41350397 -23.12890625 40.4765625 C-27.02581723 33.17155167 -27.31309218 24.38414236 -24.9296875 16.52734375 C-20.20619712 6.15756189 -11.55450666 -0.17727538 0 0 Z " fill="#388BBE" transform="translate(257.8125,303.5625)"/>
<path d="M0 0 C6.1875 -0.0928125 6.1875 -0.0928125 12.5 -0.1875 C13.78455078 -0.21481201 15.06910156 -0.24212402 16.39257812 -0.27026367 C23.90522652 -0.32460999 29.744389 0.07823722 36.09375 4.4375 C39.31589598 8.0176622 40.42690812 10.70924895 40.625 15.5625 C40.34676186 20.39191923 39.30005847 23.33326837 36 27 C32.6 30 32.6 30 30 30 C30.33322266 30.47421387 30.66644531 30.94842773 31.00976562 31.43701172 C32.51135304 33.57966145 34.00574182 35.72723333 35.5 37.875 C36.02464844 38.62136719 36.54929687 39.36773438 37.08984375 40.13671875 C37.58613281 40.85214844 38.08242188 41.56757812 38.59375 42.3046875 C39.05458984 42.96452637 39.51542969 43.62436523 39.99023438 44.30419922 C41 46 41 46 41 48 C37.01349746 49.04096295 33.95675837 49.24846786 30 48 C27.19057527 45.18963283 25.11851216 41.85571224 23.14526367 38.42358398 C20.73937222 34.36366373 20.73937222 34.36366373 16.66113281 32.30419922 C13.8929834 31.95361388 13.8929834 31.95361388 10 32 C10 37.28 10 42.56 10 48 C6.7 48 3.4 48 0 48 C0 32.16 0 16.32 0 0 Z " fill="#233852" transform="translate(365,609)"/>
<path d="M0 0 C6.06462906 3.07563331 9.75319484 8.00857562 12.125 14.375 C13.1337915 21.79583613 11.26387046 27.69614281 7.5625 34.0625 C2.25275015 39.09995499 -3.61616514 41.66978472 -10.9375 42.0625 C-18.53392886 41.73009513 -23.21504424 38.17136374 -28.3125 32.8125 C-32.14882995 26.82782527 -32.64842497 21.34561492 -31.875 14.375 C-30.10876312 8.19845906 -26.20162991 3.85225944 -20.875 0.375 C-14.17485246 -2.81658741 -6.8684217 -2.7565572 0 0 Z " fill="#FCFDFD" transform="translate(399.875,274.625)"/>
<path d="M0 0 C4.00125 -0.0825 8.0025 -0.165 12.125 -0.25 C13.37555176 -0.28641602 14.62610352 -0.32283203 15.91455078 -0.36035156 C22.23200939 -0.4234549 26.28877859 -0.40983014 31 4 C33.09991805 7.14987708 33.52439456 9.10336703 33.46875 12.859375 C32.61073793 16.77763012 29.83156994 19.30326672 27 22 C28.7578125 22.94401042 30.515625 23.88802083 32.2734375 24.83203125 C34 26 34 26 36 29 C36.49092933 34.20385094 35.98326659 37.66945172 33 42 C26.5855348 46.98202143 20.42876503 46.47143313 12.5625 46.25 C6.3440625 46.12625 6.3440625 46.12625 0 46 C0 30.82 0 15.64 0 0 Z " fill="#286C9F" transform="translate(576,610)"/>
<path d="M0 0 C3.96 -0.0825 7.92 -0.165 12 -0.25 C13.84851563 -0.30462402 13.84851563 -0.30462402 15.734375 -0.36035156 C24.29368388 -0.44627727 29.32020537 0.93350447 36 6.5 C39.38036317 11.00333128 38.75542653 16.69063429 38 22 C36.50243526 26.94196365 33.57535369 29.72647572 29.06616211 32.19726562 C25.29493092 33.66244442 21.55046774 33.4171026 17.5625 33.25 C16.32209961 33.22292969 16.32209961 33.22292969 15.05664062 33.1953125 C13.03725067 33.1486214 11.01846555 33.07689393 9 33 C9 37.62 9 42.24 9 47 C6.03 47 3.06 47 0 47 C0 31.49 0 15.98 0 0 Z " fill="#203651" transform="translate(293,609)"/>
<path d="M0 0 C12.21 0 24.42 0 37 0 C37 2.97 37 5.94 37 9 C28.42 9 19.84 9 11 9 C11 12.3 11 15.6 11 19 C18.59 19 26.18 19 34 19 C34 21.97 34 24.94 34 28 C26.08 28 18.16 28 10 28 C10 31.63 10 35.26 10 39 C19.24 39 28.48 39 38 39 C38 41.97 38 44.94 38 48 C25.46 48 12.92 48 0 48 C0 32.16 0 16.32 0 0 Z " fill="#2A405A" transform="translate(416,609)"/>
<path d="M0 0 C3.3 0 6.6 0 10 0 C15.50210966 10.40580256 20.31626667 21.08272384 25 31.875 C25.29675629 32.55564514 25.59351257 33.23629028 25.89926147 33.93756104 C26.7497906 35.89138154 27.59472104 37.84751331 28.4375 39.8046875 C28.93121094 40.94921387 29.42492187 42.09374023 29.93359375 43.27294922 C31 46 31 46 31 48 C27.7 48 24.4 48 21 48 C17 40.375 17 40.375 17 37 C9.41 37 1.82 37 -6 37 C-6.99 39.97 -7.98 42.94 -9 46 C-9.33 46.66 -9.66 47.32 -10 48 C-13.3 48 -16.6 48 -20 48 C-17.98445077 41.68865639 -15.66455185 35.64744289 -12.98828125 29.58984375 C-12.61519333 28.73693253 -12.24210541 27.8840213 -11.85771179 27.00526428 C-10.67964696 24.31438184 -9.49617592 21.62591821 -8.3125 18.9375 C-7.50680095 17.09976739 -6.70145905 15.26187815 -5.89648438 13.42382812 C-3.93511038 8.94739896 -1.96888838 4.47312886 0 0 Z " fill="#233751" transform="translate(208,609)"/>
<path d="M0 0 C0.47566406 0.28875 0.95132813 0.5775 1.44140625 0.875 C0.88411712 4.21873475 0.08966736 6.90812999 -1.55859375 9.875 C-2.25984375 9.58625 -2.96109375 9.2975 -3.68359375 9 C-4.63234375 8.62875 -5.58109375 8.2575 -6.55859375 7.875 C-7.50734375 7.50375 -8.45609375 7.1325 -9.43359375 6.75 C-12.97508372 5.75838281 -15.89737304 5.59336764 -19.55859375 5.875 C-20.21859375 6.535 -20.87859375 7.195 -21.55859375 7.875 C-21.23817978 10.47780568 -21.23817978 10.47780568 -20.55859375 12.875 C-19.54539062 13.18953125 -18.5321875 13.5040625 -17.48828125 13.828125 C-16.1365614 14.2599244 -14.78500761 14.69224388 -13.43359375 15.125 C-12.7684375 15.32996094 -12.10328125 15.53492188 -11.41796875 15.74609375 C-6.13879027 17.45406326 -1.78536304 19.79668199 2.31640625 23.625 C4.57212657 28.13644064 3.89025358 32.44429912 2.44140625 37.0625 C-0.38176071 41.03257853 -2.92464741 43.25243125 -7.55859375 44.875 C-16.01182488 46.04226131 -23.17210664 45.44656084 -30.703125 41.359375 C-32.76567193 39.70933746 -33.57795105 38.30325813 -34.55859375 35.875 C-32.57859375 33.4 -32.57859375 33.4 -30.55859375 30.875 C-27.97340812 31.37215108 -26.32086561 32.02358008 -24.05859375 33.4375 C-18.93502897 35.54182125 -14.02735684 35.11392654 -8.55859375 34.875 C-8.22859375 33.225 -7.89859375 31.575 -7.55859375 29.875 C-12.46684767 26.65860633 -17.62367614 25.11300191 -23.18359375 23.3515625 C-27.4269353 21.49510057 -30.46208406 19.06801938 -32.55859375 14.875 C-32.98391525 10.71175686 -32.9824279 6.99691392 -31.49609375 3.0625 C-23.50298468 -5.96197798 -10.14262092 -5.37951165 0 0 Z " fill="#223751" transform="translate(278.55859375,612.125)"/>
<path d="M0 0 C5.67476113 1.96434039 9.31400331 5.62800662 12 11 C12.37364646 16.60469691 12.20860998 20.18708503 9 25 C5.0372485 29.00606026 1.42251065 31.11715861 -4.25 31.375 C-9.40624857 31.31621541 -12.36138778 29.54000484 -16 26 C-19.6084993 22.04229109 -19.50644629 17.79276246 -19.34765625 12.65625 C-18.67190788 7.49322873 -16.08099911 4.95530154 -12.3125 1.625 C-8.01507138 -0.48317253 -4.69964191 -0.68466006 0 0 Z " fill="#398CBE" transform="translate(486,226)"/>
<path d="M0 0 C3.59440023 2.40133293 6.3929205 4.94141357 7.91015625 9.046875 C8.72480945 13.88149915 9.01953763 18.12021825 6.515625 22.46875 C2.13585995 27.69775054 -1.20928007 29.7725356 -8.02734375 30.421875 C-12.3329925 30.3002465 -14.77378339 28.83538031 -18.08984375 26.046875 C-22.11216846 21.58970438 -23.47510167 18.25490591 -23.36328125 12.171875 C-22.68095729 6.86924305 -20.08954871 3.82664487 -15.96484375 0.609375 C-10.93984551 -1.87077435 -5.15420475 -2.35070273 0 0 Z " fill="#398EC0" transform="translate(351.08984375,180.953125)"/>
<path d="M0 0 C1.32 0 2.64 0 4 0 C8.34248016 9.66258161 12.67612709 19.32907769 17 29 C17.42990234 29.96083496 17.85980469 30.92166992 18.30273438 31.91162109 C19.31040379 34.16832577 20.31297372 36.42717973 21.3125 38.6875 C21.84488281 39.88761719 22.37726562 41.08773437 22.92578125 42.32421875 C24 45 24 45 24 47 C22.68 47 21.36 47 20 47 C19.16209211 45.21046815 18.32980604 43.41830305 17.5 41.625 C17.0359375 40.62726562 16.571875 39.62953125 16.09375 38.6015625 C15 36 15 36 15 34 C6.42 34.33 -2.16 34.66 -11 35 C-12.65 38.96 -14.3 42.92 -16 47 C-17.32 47 -18.64 47 -20 47 C-17.81461685 40.08908056 -15.17251606 33.50481265 -12.25 26.875 C-11.81187988 25.8739624 -11.37375977 24.8729248 -10.92236328 23.84155273 C-7.40381667 15.83579861 -3.76549047 7.89256778 0 0 Z " fill="#276D9C" transform="translate(542,609)"/>
<path d="M0 0 C3.35613886 -0.16283153 6.70430351 -0.28128289 10.0625 -0.375 C11.47692383 -0.45041016 11.47692383 -0.45041016 12.91992188 -0.52734375 C19.01979617 -0.65486725 22.32979393 0.15089876 26.78613281 4.40161133 C28 6 28 6 28.6875 9.0625 C27.8382398 12.69115723 26.66617051 14.40588815 24 17 C19.26749097 19.63928388 14.44145035 19.22608051 9.1875 19.125 C6.155625 19.08375 3.12375 19.0425 0 19 C0 12.73 0 6.46 0 0 Z " fill="#F8FAFB" transform="translate(580,634)"/>
<path d="M0 0 C3.3 0 6.6 0 10 0 C10 15.84 10 31.68 10 48 C6.7 48 3.4 48 0 48 C0 32.16 0 16.32 0 0 Z " fill="#263B53" transform="translate(342,609)"/>
<path d="M0 0 C3.23006734 -0.1081697 6.45649754 -0.18739234 9.6875 -0.25 C11.05551758 -0.30027344 11.05551758 -0.30027344 12.45117188 -0.3515625 C16.76469175 -0.41430461 19.30966207 -0.39893901 23.109375 1.796875 C25 4 25 4 25.5625 7.5 C24.92519445 11.46545673 24.1376325 12.60063397 21 15 C18.65147472 16.17426264 17.26225935 16.11508173 14.6484375 16.09765625 C13.79765625 16.09443359 12.946875 16.09121094 12.0703125 16.08789062 C11.18085937 16.07951172 10.29140625 16.07113281 9.375 16.0625 C8.4778125 16.05798828 7.580625 16.05347656 6.65625 16.04882812 C4.43747169 16.03702611 2.21872757 16.01909039 0 16 C0 10.72 0 5.44 0 0 Z " fill="#FDFDFE" transform="translate(580,614)"/>
<path d="M0 0 C2.56236973 2.28702434 3.86658789 4.47237649 5.26171875 7.59765625 C5.65810547 8.48130859 6.05449219 9.36496094 6.46289062 10.27539062 C7.06907227 11.65500977 7.06907227 11.65500977 7.6875 13.0625 C8.31108398 14.44791992 8.31108398 14.44791992 8.94726562 15.86132812 C12 22.72371459 12 22.72371459 12 25 C4.74 25 -2.52 25 -10 25 C-9.23055477 21.15277385 -8.51694134 18.59332263 -6.93359375 15.13671875 C-6.53076172 14.25048828 -6.12792969 13.36425781 -5.71289062 12.45117188 C-5.29201172 11.53916016 -4.87113281 10.62714844 -4.4375 9.6875 C-4.01275391 8.75615234 -3.58800781 7.82480469 -3.15039062 6.86523438 C-2.10493657 4.5746328 -1.05468244 2.28636341 0 0 Z " fill="#F5F8FA" transform="translate(543,615)"/>
<path d="M0 0 C3.5578125 -0.12375 3.5578125 -0.12375 7.1875 -0.25 C7.92508545 -0.28641602 8.6626709 -0.32283203 9.42260742 -0.36035156 C12.99127588 -0.42011049 14.90544515 -0.05845663 17.95703125 1.828125 C20 4 20 4 20.5 7 C19.95698679 10.25807925 19.31873852 11.68126148 17 14 C11.57364835 15.80878388 5.66885438 15.05200784 0 15 C0 10.05 0 5.1 0 0 Z " fill="#F6F7F8" transform="translate(375,618)"/>
<path d="M0 0 C12.20559129 -0.4931552 12.20559129 -0.4931552 15.89453125 1.796875 C18 4 18 4 18.5 7.5 C17.99018374 11.06871381 17.56333571 12.53160265 15 15 C10.09931037 16.63356321 5.14261524 16.05529694 0 16 C0 10.72 0 5.44 0 0 Z " fill="#F9FAFA" transform="translate(303,618)"/>
<path d="M0 0 C0.99 0 1.98 0 3 0 C3 14.19 3 28.38 3 43 C11.91 43 20.82 43 30 43 C30 43.99 30 44.98 30 46 C20.1 46 10.2 46 0 46 C0 30.82 0 15.64 0 0 Z " fill="#246A9C" transform="translate(487,610)"/>
<path d="M0 0 C19 0 19 0 23 3 C16.4 3 9.8 3 3 3 C3 16.53 3 30.06 3 44 C4.32 44.33 5.64 44.66 7 45 C6.505 45.495 6.505 45.495 6 46 C4.02 46 2.04 46 0 46 C0 30.82 0 15.64 0 0 Z " fill="#266B9C" transform="translate(576,610)"/>
<path d="M0 0 C6.6 0 13.2 0 20 0 C20 0.33 20 0.66 20 1 C13.73 1 7.46 1 1 1 C1 6.28 1 11.56 1 17 C6.61 17 12.22 17 18 17 C18 17.33 18 17.66 18 18 C13.05 18.33 8.1 18.66 3 19 C6.96 19.33 10.92 19.66 15 20 C15 20.33 15 20.66 15 21 C10.38 21 5.76 21 1 21 C1 27.27 1 33.54 1 40 C9.91 39.67 18.82 39.34 28 39 C23.13925526 43.86074474 19.63320591 43.18291472 13.0625 43.1875 C12.14275391 43.19974609 11.22300781 43.21199219 10.27539062 43.22460938 C9.39173828 43.22654297 8.50808594 43.22847656 7.59765625 43.23046875 C6.78820557 43.23457764 5.97875488 43.23868652 5.14477539 43.24291992 C3 43 3 43 0 41 C-0.36076355 39.20297241 -0.36076355 39.20297241 -0.34057617 37.00927734 C-0.34034958 36.18857758 -0.34012299 35.36787781 -0.33988953 34.52230835 C-0.32440567 33.63580597 -0.30892181 32.74930359 -0.29296875 31.8359375 C-0.28872391 30.92872955 -0.28447906 30.02152161 -0.28010559 29.08682251 C-0.26328133 26.18258268 -0.2256226 23.2790309 -0.1875 20.375 C-0.17245799 18.40886417 -0.15876875 16.44271749 -0.14648438 14.4765625 C-0.11591427 9.65056184 -0.05720081 4.82605313 0 0 Z " fill="#5F92B9" transform="translate(579,613)"/>
<path d="M0 0 C2.44814179 3.0296652 4.09452853 6.07549599 5.6875 9.625 C6.12449219 10.58664062 6.56148437 11.54828125 7.01171875 12.5390625 C8 15 8 15 8 17 C3.05 17 -1.9 17 -7 17 C-5.11994266 10.98381653 -2.93937169 5.57467045 0 0 Z " fill="#F3F5F6" transform="translate(213,621)"/>
<path d="M0 0 C1.32 0 2.64 0 4 0 C5.7002329 3.61916242 7.38299035 7.24617996 9.0625 10.875 C9.54783203 11.90753906 10.03316406 12.94007813 10.53320312 14.00390625 C10.98759766 14.99003906 11.44199219 15.97617187 11.91015625 16.9921875 C12.54642944 18.35899658 12.54642944 18.35899658 13.19555664 19.75341797 C13.46102295 20.49479004 13.72648926 21.23616211 14 22 C13.67 22.66 13.34 23.32 13 24 C12.34 23.67 11.68 23.34 11 23 C10.67 23.66 10.34 24.32 10 25 C7.36 19.06 4.72 13.12 2 7 C0.68 8.65 -0.64 10.3 -2 12 C-2.66 11.67 -3.32 11.34 -4 11 C-3.39301257 6.87248551 -1.96189209 3.6678852 0 0 Z " fill="#3572A0" transform="translate(542,609)"/>
<path d="M0 0 C3.87467873 1.25665256 6.10609704 2.31187319 8 6 C8.57955184 11.21596656 7.75648854 14.54721082 5 19 C1.78548731 20.60725635 -1.43612536 20.05748185 -5 20 C-4.01 19.34 -3.02 18.68 -2 18 C1.07838801 15.42274492 2.79536745 13.98223625 3.625 10 C2.80695681 6.07339268 1.00495843 4.55421467 -2 2 C-1.34 2 -0.68 2 0 2 C0 1.34 0 0.68 0 0 Z " fill="#3874A0" transform="translate(604,633)"/>
<path d="M0 0 C3.83428028 -0.36516955 5.78812732 -0.11001082 9.25 1.6875 C12.13542264 4.11387813 13.36693585 5.29205285 14 9 C12.6875 11.8125 12.6875 11.8125 11 14 C10.67 14 10.34 14 10 14 C9.7525 12.906875 9.505 11.81375 9.25 10.6875 C7.94819966 6.84718899 7.27652107 6.07513001 4 4 C4 3.34 4 2.68 4 2 C2.68 1.67 1.36 1.34 0 1 C0 0.67 0 0.34 0 0 Z " fill="#3776A5" transform="translate(595,610)"/>
<path d="M0 0 C2.06547922 3.09821883 3.56243611 6.18449352 5.125 9.5625 C5.66382813 10.71878906 6.20265625 11.87507812 6.7578125 13.06640625 C8 16 8 16 8 18 C6.68 18 5.36 18 4 18 C-1.92482916 6.66287016 -1.92482916 6.66287016 0 0 Z " fill="#36759F" transform="translate(558,638)"/>
<path d="M0 0 C0.99 0.33 1.98 0.66 3 1 C5.05893621 1.22325814 7.12233653 1.40705759 9.1875 1.5625 C10.27417969 1.64628906 11.36085938 1.73007812 12.48046875 1.81640625 C13.72763672 1.90728516 13.72763672 1.90728516 15 2 C15 2.33 15 2.66 15 3 C10.38 3 5.76 3 1 3 C1 9.27 1 15.54 1 22 C0.67 22 0.34 22 0 22 C0 14.74 0 7.48 0 0 Z " fill="#5787B1" transform="translate(579,631)"/>
<path d="M0 0 C0.99 0.99 1.98 1.98 3 3 C2.34 4.98 1.68 6.96 1 9 C-0.32 9 -1.64 9 -3 9 C-2.01 6.03 -1.02 3.06 0 0 Z " fill="#3577A2" transform="translate(533,628)"/>
<path d="M0 0 C1.21065165 3.63195496 0.62784815 5.06531629 -0.4375 8.6875 C-0.86869141 10.17830078 -0.86869141 10.17830078 -1.30859375 11.69921875 C-1.53675781 12.45847656 -1.76492188 13.21773438 -2 14 C-2.66 14 -3.32 14 -4 14 C-3.46148032 8.72250715 -2.22656164 4.74354436 0 0 Z " fill="#2E4150" transform="translate(427,311)"/>
<path d="M0 0 C0.33 0 0.66 0 1 0 C1.2295711 3.36704285 1.33943529 5.41370268 -0.375 8.375 C-0.91125 8.91125 -1.4475 9.4475 -2 10 C-2.66 10 -3.32 10 -4 10 C-3.4359146 6.05140217 -2.2568294 3.29120954 0 0 Z " fill="#286C9A" transform="translate(608,619)"/>
<path d="M0 0 C-4.06849409 2.71232939 -6.16476784 2.30699887 -11 2 C-11.66 1.34 -12.32 0.68 -13 0 C-11.58456585 -0.19658808 -10.16755969 -0.38187546 -8.75 -0.5625 C-7.96109375 -0.66691406 -7.1721875 -0.77132812 -6.359375 -0.87890625 C-3.99467126 -1.00027349 -2.2488963 -0.69633257 0 0 Z " fill="#206EA3" transform="translate(607,653)"/>
<path d="M0 0 C0.99 0.66 1.98 1.32 3 2 C2.38125 2.7425 1.7625 3.485 1.125 4.25 C-0.60437281 6.48801188 -1.86106661 8.43739987 -3 11 C-4 9 -4 9 -3.4765625 7.08984375 C-3.05503906 6.02443359 -3.05503906 6.02443359 -2.625 4.9375 C-2.34914063 4.22464844 -2.07328125 3.51179688 -1.7890625 2.77734375 C-1 1 -1 1 0 0 Z " fill="#20547D" transform="translate(349,253)"/>
<path d="M0 0 C1.9375 0.75 1.9375 0.75 4 2 C4.75 4.125 4.75 4.125 5 6 C3.68 6 2.36 6 1 6 C0.67 4.02 0.34 2.04 0 0 Z " fill="#226B99" transform="translate(561,650)"/>
<path d="M0 0 C2.15377564 2.62198774 3.40072174 4.64404172 4 8 C3.01 7.67 2.02 7.34 1 7 C0.67 7.66 0.34 8.32 0 9 C-0.33 7.68 -0.66 6.36 -1 5 C-0.34 5 0.32 5 1 5 C1 4.34 1 3.68 1 3 C0.34 3 -0.32 3 -1 3 C-0.67 2.01 -0.34 1.02 0 0 Z " fill="#4079A0" transform="translate(552,625)"/>
<path d="M0 0 C1.9375 0.75 1.9375 0.75 4 2 C4.75 4.125 4.75 4.125 5 6 C3.68 6 2.36 6 1 6 C0.67 4.02 0.34 2.04 0 0 Z " fill="#2F6F99" transform="translate(553,632)"/>
<path d="M0 0 C2.475 0.99 2.475 0.99 5 2 C4.01 2.99 3.02 3.98 2 5 C0.68 4.01 -0.64 3.02 -2 2 C-1.34 2 -0.68 2 0 2 C0 1.34 0 0.68 0 0 Z " fill="#487EA5" transform="translate(604,633)"/>
</svg>
